<?xml version="1.0" encoding="UTF-8" standalone="no"?>
<!-- Created with Inkscape (http://www.inkscape.org/) -->

<svg
   xmlns:dc="http://purl.org/dc/elements/1.1/"
   xmlns:cc="http://creativecommons.org/ns#"
   xmlns:rdf="http://www.w3.org/1999/02/22-rdf-syntax-ns#"
   xmlns:svg="http://www.w3.org/2000/svg"
   xmlns="http://www.w3.org/2000/svg"
   xmlns:sodipodi="http://sodipodi.sourceforge.net/DTD/sodipodi-0.dtd"
   xmlns:inkscape="http://www.inkscape.org/namespaces/inkscape"
   width="126.62944mm"
   height="176.99648mm"
   viewBox="0 0 448.68699 627.15286"
   id="svg2"
   version="1.1"
   inkscape:version="0.91 r13725"
   sodipodi:docname="logo.svg"
   inkscape:export-filename="/home/yves/sqlstreamstore-logo.png"
   inkscape:export-xdpi="90"
   inkscape:export-ydpi="90">
  <defs
     id="defs4" />
  <sodipodi:namedview
     id="base"
     pagecolor="#ffffff"
     bordercolor="#666666"
     borderopacity="1.0"
     inkscape:pageopacity="0.0"
     inkscape:pageshadow="2"
     inkscape:zoom="0.7"
     inkscape:cx="829.48182"
     inkscape:cy="-327.03046"
     inkscape:document-units="px"
     inkscape:current-layer="layer1"
     showgrid="false"
     inkscape:window-width="3840"
     inkscape:window-height="2101"
     inkscape:window-x="0"
     inkscape:window-y="0"
     inkscape:window-maximized="1"
     fit-margin-top="0"
     fit-margin-left="0"
     fit-margin-right="0"
     fit-margin-bottom="0" />
  <metadata
     id="metadata7">
    <rdf:RDF>
      <cc:Work
         rdf:about="">
        <dc:format>image/svg+xml</dc:format>
        <dc:type
           rdf:resource="http://purl.org/dc/dcmitype/StillImage" />
        <dc:title></dc:title>
      </cc:Work>
    </rdf:RDF>
  </metadata>
  <g
     inkscape:label="Layer 1"
     inkscape:groupmode="layer"
     id="layer1"
     transform="translate(-88.5,-116.7757)">
    <g
       id="g4397">
      <ellipse
         ry="100.85712"
         rx="224.28516"
         cy="217.63281"
         cx="312.90182"
         id="path4201"
         style="fill:#42c0fb;fill-opacity:1" />
      <path
         inkscape:connector-curvature="0"
         id="path4203-9"
         d="M 537.18698,273.96289 A 265.71429,157.14285 0 0 1 312.32956,347.79102 265.71429,157.14285 0 0 1 88.616669,275.24805 l 0,78.73242 a 265.71429,157.14285 0 0 0 223.712891,72.66797 265.71429,157.14285 0 0 0 224.85742,-73.54297 l 0,-79.14258 z"
         style="fill:#42c0fb;fill-opacity:1" />
      <path
         id="path4203-9-6"
         d="m 537.18696,379.73376 a 265.71429,157.14285 0 0 1 -224.8574,73.8281 265.71429,157.14285 0 0 1 -223.712891,-72.543 l 0,78.7324 a 265.71429,157.14285 0 0 0 223.712891,72.668 265.71429,157.14285 0 0 0 224.8574,-73.543 l 0,-79.1425 z"
         style="fill:#42c0fb;fill-opacity:1"
         inkscape:connector-curvature="0" />
      <path
         id="path4203-9-2"
         d="m 537.18696,484.56256 a 265.71429,157.14285 0 0 1 -224.8574,73.8282 265.71429,157.14285 0 0 1 -223.712891,-72.543 l 0,78.7324 a 265.71429,157.14285 0 0 0 223.712891,72.668 265.71429,157.14285 0 0 0 224.8574,-73.543 l 0,-79.1426 z"
         style="fill:#42c0fb;fill-opacity:1"
         inkscape:connector-curvature="0" />
      <path
         inkscape:connector-curvature="0"
         id="path4203-9-6-1-4"
         d="m 88.616669,592.51841 0,78.73243 a 265.71429,157.14285 0 0 0 216.570311,72.45893 l 0,0.2188 232,0 0,-73.55273 0,-5.16211 0,-0.28516 -232,0 0,0.28516 -0.28516,0 0,-0.375 A 265.71429,157.14285 0 0 1 88.616669,592.51841 Z"
         style="fill:#42c0fb;fill-opacity:1" />
      <path
         id="rect4379"
         d="m 88.5,116.80078 0,66.78711 a 224.28516,100.85712 0 0 1 129.31641,-66.78711 l -129.31641,0 z"
         style="fill:#42c0fb;fill-opacity:1"
         inkscape:connector-curvature="0" />
    </g>
  </g>
</svg>
